<?xml version="1.0" encoding="UTF-8" standalone="no"?>
<!-- Created with Inkscape (http://www.inkscape.org/) -->

<svg
   xmlns:dc="http://purl.org/dc/elements/1.1/"
   xmlns:cc="http://creativecommons.org/ns#"
   xmlns:rdf="http://www.w3.org/1999/02/22-rdf-syntax-ns#"
   xmlns:svg="http://www.w3.org/2000/svg"
   xmlns="http://www.w3.org/2000/svg"
   version="1.1"
   width="210mm"
   height="297mm"
   id="svg2">
  <defs
     id="defs4" />
  <metadata
     id="metadata7">
    <rdf:RDF>
      <cc:Work
         rdf:about="">
        <dc:format>image/svg+xml</dc:format>
        <dc:type
           rdf:resource="http://purl.org/dc/dcmitype/StillImage" />
        <dc:title></dc:title>
      </cc:Work>
    </rdf:RDF>
  </metadata>
  <g
     id="layer1">
    <g
       id="text2985"
       style="font-size:86.11752319px;font-style:normal;font-weight:normal;text-align:center;line-height:125%;letter-spacing:0px;word-spacing:0px;text-anchor:middle;fill:#000000;fill-opacity:1;stroke:none;font-family:Sans">
      <path
         d="m 9.965749,343.70076 39.694796,0 0,7.14843 -31.200783,0 0,18.58591 29.897246,0 0,7.14843 -29.897246,0 0,22.74882 31.957675,0 0,7.14842 -40.451688,0 0,-62.78001"
         id="path3002" />
      <path
         d="m 0.04204999,451.34767 12.65692101,0 16.020887,42.72236 16.104986,-42.72236 12.656921,0 0,62.78001 -8.283765,0 0,-55.12699 -16.189086,43.05876 -8.536063,0 -16.1890849,-43.05876 0,55.12699 -8.24171611,0 0,-62.78001"
         id="path3004" />
      <path
         d="m 19.72125,565.9748 0,23.58981 10.680591,0 c 3.952628,3e-5 7.008227,-1.02317 9.166807,-3.06962 2.158505,-2.04637 3.237777,-4.96181 3.237817,-8.74631 -4e-5,-3.75638 -1.079312,-6.6578 -3.237817,-8.70426 -2.15858,-2.04636 -5.214179,-3.06956 -9.166807,-3.06962 l -10.680591,0 m -8.494014,-6.98023 19.174605,0 c 7.03626,6e-5 12.348518,1.59795 15.936788,4.79365 3.616216,3.16779 5.424345,7.82127 5.424394,13.96046 -4.9e-5,6.19534 -1.808178,10.87686 -5.424394,14.04456 -3.58827,3.16776 -8.900528,4.75162 -15.936788,4.7516 l -10.680591,0 0,25.22974 -8.494014,0 0,-62.78001"
         id="path3006" />
      <path
         d="m 4.7095525,666.64148 8.5360635,0 0,38.13896 c -1.6e-5,6.72795 1.21942,11.57766 3.658312,14.54915 2.438853,2.94348 6.391509,4.41521 11.85798,4.4152 5.438374,1e-5 9.377013,-1.47172 11.815929,-4.4152 2.43883,-2.97149 3.658266,-7.8212 3.658313,-14.54915 l 0,-38.13896 8.536063,0 0,39.1902 c -5.5e-5,8.18566 -2.032449,14.36694 -6.097188,18.54386 -4.036804,4.17692 -10.007837,6.26538 -17.913117,6.26538 -7.933377,0 -13.932443,-2.08846 -17.997217,-6.26538 -4.0367686,-4.17692 -6.055146,-10.3582 -6.0551385,-18.54386 l 0,-39.1902"
         id="path3008" />
      <path
         d="m 24.514901,774.28838 8.494013,0 0,58.40685 c -1.7e-5,7.56892 -1.443717,13.0634 -4.331106,16.48344 -2.85938,3.42001 -7.470812,5.13003 -13.834309,5.13004 l -3.237817,0 0,-7.14842 2.649123,0 c 3.756427,-1e-5 6.405547,-1.05125 7.947369,-3.15372 1.54181,-2.10248 2.312718,-5.87293 2.312727,-11.31134 l 0,-58.40685"
         id="path3010" />
      <path
         d="m 28.761908,890.30315 -11.521583,31.24283 23.085215,0 -11.563632,-31.24283 m -4.793652,-8.36787 9.629352,0 23.926207,62.78001 -8.83041,0 -5.718742,-16.10498 -28.299362,0 -5.7187418,16.10498 -8.95655878276747,0 L 23.968256,881.93528"
         id="path3012" />
      <path
         d="m 37.045673,1022.9275 c 1.822108,0.6168 3.588189,1.9343 5.298246,3.9527 1.738004,2.0184 3.476051,4.7936 5.214147,8.3258 l 8.620162,17.1562 -9.124757,0 -8.031468,-16.105 c -2.074484,-4.2049 -4.092861,-6.9942 -6.055138,-8.3679 -1.934313,-1.3735 -4.583433,-2.0604 -7.947369,-2.0604 l -9.250906,0 0,26.5333 -8.4940136,0 0,-62.78001 19.1746046,0 c 7.176426,6e-5 12.530732,1.49983 16.062937,4.4993 3.532116,2.99959 5.298197,7.52691 5.298246,13.58201 -4.9e-5,3.9527 -0.925139,7.2326 -2.775272,9.8396 -1.822193,2.6071 -4.48533,4.4152 -7.989419,5.4244 m -21.277083,-26.36508 0,22.28628 10.680591,0 c 4.092793,0 7.176426,-0.9391 9.250906,-2.8173 2.10244,-1.9062 3.153678,-4.6955 3.153718,-8.3679 -4e-5,-3.6723 -1.051278,-6.4335 -3.153718,-8.28376 -2.07448,-1.87816 -5.158113,-2.81727 -9.250906,-2.81732 l -10.680591,0"
         id="path3014" />
    </g>
  </g>
</svg>
