# Blender v2.77 (sub 0) OBJ File: 'mesa-110.blend'
# www.blender.org
mtllib mesa-110.blend.mtl
o mesa_110
v 53.127708 35.000000 -18.545336
v -56.872292 35.000000 -18.545336
v -56.872292 35.000000 -8.545336
v 53.127708 35.000000 -8.545336
v -56.872292 -35.000000 -18.545340
v -56.872292 -35.000000 -8.545340
v 53.127708 -35.000000 -18.545340
v 53.127708 -35.000000 -8.545340
v -19.372292 -5.000000 -8.545338
v -29.372292 -5.000000 -8.545338
v -29.372292 5.000000 -8.545338
v -19.372292 5.000000 -8.545338
v 15.627708 -5.000000 -8.545338
v 15.627708 5.000000 -8.545338
v 25.627708 -5.000000 -8.545338
v 25.627708 5.000000 -8.545338
v -19.372292 -5.000003 51.454662
v -29.372292 -5.000003 51.454662
v -19.372292 4.999997 51.454662
v -29.372292 4.999997 51.454662
v 15.627708 -5.000003 51.454662
v 15.627708 4.999997 51.454662
v 25.627708 -5.000003 51.454662
v 25.627708 4.999997 51.454662
v -37.872292 -14.000003 51.454662
v -9.872292 -14.000003 51.454662
v -37.872292 13.999997 51.454662
v -9.872292 13.999997 51.454662
v 6.127708 -14.000003 51.454662
v 34.127708 -14.000003 51.454662
v 6.127708 13.999997 51.454662
v 34.127708 13.999997 51.454662
v -37.872292 13.999997 56.454662
v -9.872292 13.999997 56.454662
v -37.872292 -14.000003 56.454662
v -9.872292 -14.000003 56.454662
v 6.127708 13.999997 56.454662
v 34.127708 13.999997 56.454662
v 6.127708 -14.000003 56.454662
v 34.127708 -14.000003 56.454662
vn 0.0000 1.0000 0.0000
vn -1.0000 -0.0000 0.0000
vn 1.0000 0.0000 0.0000
vn 0.0000 0.0000 -1.0000
vn 0.0000 -0.0000 1.0000
vn 0.0000 -1.0000 0.0000
usemtl Material.002
s off
f 1//1 2//1 3//1
f 1//1 3//1 4//1
f 2//2 5//2 6//2
f 2//2 6//2 3//2
f 7//3 1//3 4//3
f 7//3 4//3 8//3
f 5//4 2//4 7//4
f 7//4 2//4 1//4
f 9//5 10//5 6//5
f 3//5 10//5 11//5
f 3//5 6//5 10//5
f 12//5 3//5 11//5
f 8//5 13//5 9//5
f 8//5 9//5 6//5
f 14//5 12//5 9//5
f 14//5 9//5 13//5
f 15//5 13//5 8//5
f 16//5 15//5 8//5
f 4//5 14//5 16//5
f 4//5 3//5 12//5
f 4//5 12//5 14//5
f 4//5 16//5 8//5
f 5//6 7//6 8//6
f 5//6 8//6 6//6
f 10//6 9//6 17//6
f 10//6 17//6 18//6
f 9//3 12//3 19//3
f 9//3 19//3 17//3
f 12//1 11//1 20//1
f 12//1 20//1 19//1
f 11//2 10//2 18//2
f 11//2 18//2 20//2
f 14//2 13//2 21//2
f 14//2 21//2 22//2
f 13//6 15//6 23//6
f 13//6 23//6 21//6
f 15//3 16//3 24//3
f 15//3 24//3 23//3
f 16//1 14//1 22//1
f 16//1 22//1 24//1
f 25//4 18//4 17//4
f 18//4 25//4 20//4
f 25//4 17//4 26//4
f 20//4 25//4 27//4
f 20//4 27//4 19//4
f 17//4 19//4 28//4
f 26//4 17//4 28//4
f 19//4 27//4 28//4
f 29//4 21//4 30//4
f 30//4 21//4 23//4
f 29//4 31//4 22//4
f 21//4 29//4 22//4
f 23//4 24//4 32//4
f 24//4 22//4 32//4
f 22//4 31//4 32//4
f 30//4 23//4 32//4
f 28//1 27//1 33//1
f 28//1 33//1 34//1
f 27//2 25//2 35//2
f 27//2 35//2 33//2
f 26//3 28//3 34//3
f 26//3 34//3 36//3
f 25//6 26//6 36//6
f 25//6 36//6 35//6
f 32//1 31//1 37//1
f 32//1 37//1 38//1
f 31//2 29//2 39//2
f 31//2 39//2 37//2
f 30//3 32//3 38//3
f 30//3 38//3 40//3
f 29//6 30//6 40//6
f 29//6 40//6 39//6
f 33//5 35//5 36//5
f 34//5 33//5 36//5
f 38//5 39//5 40//5
f 38//5 37//5 39//5
